<?xml version="1.0" standalone="no"?>
<!DOCTYPE svg PUBLIC "-//W3C//DTD SVG 20010904//EN"
 "http://www.w3.org/TR/2001/REC-SVG-20010904/DTD/svg10.dtd">
<svg version="1.0" xmlns="http://www.w3.org/2000/svg"
 width="330.000000pt" height="395.000000pt" viewBox="0 0 330.000000 395.000000"
 preserveAspectRatio="xMidYMid meet">

<g transform="translate(0.000000,395.000000) scale(0.100000,-0.100000)"
fill="#000000" stroke="none">
<path d="M1422 3667 c-19 -20 -22 -35 -22 -104 0 -67 3 -83 20 -98 17 -15 20
-30 19 -94 -1 -42 -4 -103 -8 -136 l-6 -60 -220 0 c-218 0 -221 0 -277 -27
-68 -32 -152 -107 -180 -162 -40 -79 -49 -126 -73 -386 -56 -597 -131 -874
-338 -1242 -94 -169 -109 -212 -115 -343 l-4 -110 113 109 c164 155 276 275
305 323 87 145 191 518 243 878 24 159 30 184 60 243 50 99 112 144 278 204
69 25 97 41 134 78 114 114 189 361 189 621 0 111 -2 129 -20 152 -11 14 -20
37 -20 51 l0 26 154 0 c128 0 155 -3 160 -15 6 -17 -2 -45 -14 -45 -42 0 -39
-289 4 -457 67 -255 136 -352 297 -412 119 -44 164 -69 210 -114 68 -65 95
-138 124 -337 53 -356 151 -718 232 -860 26 -45 322 -353 397 -413 l39 -31 -7
94 c-9 123 -39 211 -122 357 -190 335 -284 673 -329 1188 -25 287 -33 337 -70
412 -41 86 -102 148 -185 187 l-65 31 -217 -2 c-194 -1 -217 0 -223 15 -3 9
-9 70 -12 135 -6 111 -5 119 16 141 18 19 22 36 23 99 2 68 -1 80 -22 102
l-23 25 -212 0 c-208 0 -212 0 -233 -23z m-242 -682 c32 -17 60 -61 60 -95 0
-29 -27 -77 -49 -90 -11 -5 -38 -10 -61 -10 -59 0 -100 42 -100 102 1 46 10
64 50 91 30 21 62 22 100 2z m1056 -4 c17 -10 36 -33 43 -50 42 -100 -92 -189
-170 -112 -23 24 -29 38 -29 74 0 39 5 49 35 76 41 36 76 39 121 12z"/>
<path d="M1210 2581 c-80 -25 -111 -44 -159 -96 -54 -59 -80 -120 -92 -221 -6
-49 -9 -300 -7 -625 4 -602 4 -593 73 -734 81 -166 231 -285 424 -337 102 -27
295 -30 396 -5 93 24 216 85 290 144 78 63 156 179 192 285 l28 83 3 585 c2
412 0 603 -8 645 -22 109 -85 201 -168 244 -43 22 -145 54 -140 43 44 -84 83
-179 99 -239 18 -71 19 -114 19 -642 0 -345 -4 -583 -11 -610 -15 -67 -55
-143 -101 -196 -225 -255 -704 -201 -846 95 -51 108 -53 144 -50 750 3 548 4
556 27 625 12 39 38 103 58 143 19 41 33 75 31 77 -2 2 -28 -5 -58 -14z"/>
<path d="M1580 2386 c0 -118 2 -136 20 -159 16 -20 20 -40 20 -96 l0 -70 -54
-41 c-86 -65 -107 -112 -80 -179 18 -45 37 -60 148 -116 44 -22 82 -46 84 -53
2 -7 -30 -27 -80 -51 -133 -61 -178 -111 -164 -185 10 -50 57 -92 153 -136 53
-25 83 -44 83 -55 0 -10 -28 -28 -77 -51 -89 -40 -128 -73 -143 -120 -13 -38
3 -86 41 -121 25 -23 198 -107 206 -100 2 3 -28 35 -67 72 -100 97 -98 108 27
171 106 53 143 92 143 149 0 58 -36 96 -140 147 -52 26 -96 54 -98 62 -2 9 31
30 92 60 112 55 147 92 148 155 1 71 -25 100 -140 156 -56 27 -102 55 -102 62
0 6 22 29 49 50 27 21 56 49 64 63 17 29 22 121 19 368 l-2 152 -75 0 -75 0 0
-134z"/>
</g>
</svg>
